<mxfile modified="2023-05-23T14:29:05.114Z" host="app.diagrams.net" agent="Mozilla/5.0 (Macintosh; Intel Mac OS X 10_15_7) AppleWebKit/537.36 (KHTML, like Gecko) Chrome/113.0.0.0 Safari/537.36" etag="m9xjAipcdwXxxPBllsfx" version="21.3.3" type="github">
  <diagram id="Ht1M8jgEwFfnCIfOTk4-" name="Page-1">
    <mxGraphModel dx="2871" dy="2991" grid="1" gridSize="10" guides="1" tooltips="1" connect="1" arrows="1" fold="1" page="1" pageScale="1" pageWidth="1169" pageHeight="827" math="0" shadow="0">
      <root>
        <mxCell id="0" />
        <mxCell id="1" parent="0" />
        <mxCell id="mZrZ3VLlIDcRX8v9q6k0-5" value="VPC" style="sketch=0;outlineConnect=0;gradientColor=none;html=1;whiteSpace=wrap;fontSize=12;fontStyle=0;shape=mxgraph.aws4.group;grIcon=mxgraph.aws4.group_vpc;strokeColor=#000000;fillColor=none;verticalAlign=top;align=left;spacingLeft=30;fontColor=#B6BABF;dashed=0;" vertex="1" parent="1">
          <mxGeometry x="80" y="-900" width="1040" height="790" as="geometry" />
        </mxCell>
        <mxCell id="mZrZ3VLlIDcRX8v9q6k0-2" value="Public subnet" style="points=[[0,0],[0.25,0],[0.5,0],[0.75,0],[1,0],[1,0.25],[1,0.5],[1,0.75],[1,1],[0.75,1],[0.5,1],[0.25,1],[0,1],[0,0.75],[0,0.5],[0,0.25]];outlineConnect=0;gradientColor=none;html=1;whiteSpace=wrap;fontSize=12;fontStyle=0;container=1;pointerEvents=0;collapsible=0;recursiveResize=0;shape=mxgraph.aws4.group;grIcon=mxgraph.aws4.group_security_group;grStroke=0;strokeColor=#248814;fillColor=#E9F3E6;verticalAlign=top;align=left;spacingLeft=30;fontColor=#248814;dashed=0;" vertex="1" parent="1">
          <mxGeometry x="630" y="-730" width="460" height="250" as="geometry" />
        </mxCell>
        <mxCell id="mZrZ3VLlIDcRX8v9q6k0-3" value="Private subnet" style="points=[[0,0],[0.25,0],[0.5,0],[0.75,0],[1,0],[1,0.25],[1,0.5],[1,0.75],[1,1],[0.75,1],[0.5,1],[0.25,1],[0,1],[0,0.75],[0,0.5],[0,0.25]];outlineConnect=0;gradientColor=none;html=1;whiteSpace=wrap;fontSize=12;fontStyle=0;container=1;pointerEvents=0;collapsible=0;recursiveResize=0;shape=mxgraph.aws4.group;grIcon=mxgraph.aws4.group_security_group;grStroke=0;strokeColor=#147EBA;fillColor=#E6F2F8;verticalAlign=top;align=left;spacingLeft=30;fontColor=#147EBA;dashed=0;" vertex="1" parent="1">
          <mxGeometry x="140" y="-450" width="460" height="280" as="geometry" />
        </mxCell>
        <mxCell id="mZrZ3VLlIDcRX8v9q6k0-16" style="edgeStyle=orthogonalEdgeStyle;rounded=0;orthogonalLoop=1;jettySize=auto;html=1;strokeWidth=1;fillColor=#60a917;strokeColor=#000000;entryX=0.5;entryY=0.98;entryDx=0;entryDy=0;entryPerimeter=0;" edge="1" parent="mZrZ3VLlIDcRX8v9q6k0-3" target="mZrZ3VLlIDcRX8v9q6k0-38">
          <mxGeometry relative="1" as="geometry">
            <mxPoint x="110" y="237.0666666666666" as="sourcePoint" />
            <mxPoint x="215" y="200" as="targetPoint" />
          </mxGeometry>
        </mxCell>
        <mxCell id="mZrZ3VLlIDcRX8v9q6k0-31" value="" style="outlineConnect=0;dashed=0;verticalLabelPosition=bottom;verticalAlign=top;align=center;html=1;shape=mxgraph.aws3.ec2_compute_container;fillColor=#F58534;gradientColor=none;" vertex="1" parent="mZrZ3VLlIDcRX8v9q6k0-3">
          <mxGeometry x="50" y="220" width="60" height="34.5" as="geometry" />
        </mxCell>
        <mxCell id="mZrZ3VLlIDcRX8v9q6k0-38" value="" style="outlineConnect=0;dashed=0;verticalLabelPosition=bottom;verticalAlign=top;align=center;html=1;shape=mxgraph.aws3.rds_db_instance;fillColor=#2E73B8;gradientColor=none;" vertex="1" parent="mZrZ3VLlIDcRX8v9q6k0-3">
          <mxGeometry x="190" y="130" width="49.5" height="66" as="geometry" />
        </mxCell>
        <mxCell id="mZrZ3VLlIDcRX8v9q6k0-6" value="Public subnet" style="points=[[0,0],[0.25,0],[0.5,0],[0.75,0],[1,0],[1,0.25],[1,0.5],[1,0.75],[1,1],[0.75,1],[0.5,1],[0.25,1],[0,1],[0,0.75],[0,0.5],[0,0.25]];outlineConnect=0;gradientColor=none;html=1;whiteSpace=wrap;fontSize=12;fontStyle=0;container=1;pointerEvents=0;collapsible=0;recursiveResize=0;shape=mxgraph.aws4.group;grIcon=mxgraph.aws4.group_security_group;grStroke=0;strokeColor=#248814;fillColor=#E9F3E6;verticalAlign=top;align=left;spacingLeft=30;fontColor=#248814;dashed=0;" vertex="1" parent="1">
          <mxGeometry x="150" y="-730" width="460" height="250" as="geometry" />
        </mxCell>
        <mxCell id="mZrZ3VLlIDcRX8v9q6k0-7" value="Private subnet" style="points=[[0,0],[0.25,0],[0.5,0],[0.75,0],[1,0],[1,0.25],[1,0.5],[1,0.75],[1,1],[0.75,1],[0.5,1],[0.25,1],[0,1],[0,0.75],[0,0.5],[0,0.25]];outlineConnect=0;gradientColor=none;html=1;whiteSpace=wrap;fontSize=12;fontStyle=0;container=1;pointerEvents=0;collapsible=0;recursiveResize=0;shape=mxgraph.aws4.group;grIcon=mxgraph.aws4.group_security_group;grStroke=0;strokeColor=#147EBA;fillColor=#E6F2F8;verticalAlign=top;align=left;spacingLeft=30;fontColor=#147EBA;dashed=0;" vertex="1" parent="1">
          <mxGeometry x="630" y="-450" width="460" height="280" as="geometry" />
        </mxCell>
        <mxCell id="mZrZ3VLlIDcRX8v9q6k0-20" value="" style="outlineConnect=0;dashed=0;verticalLabelPosition=bottom;verticalAlign=top;align=center;html=1;shape=mxgraph.aws3.ec2_compute_container;fillColor=#F58534;gradientColor=none;" vertex="1" parent="mZrZ3VLlIDcRX8v9q6k0-7">
          <mxGeometry x="200" y="37" width="60" height="34.5" as="geometry" />
        </mxCell>
        <mxCell id="mZrZ3VLlIDcRX8v9q6k0-10" value="" style="edgeStyle=orthogonalEdgeStyle;rounded=0;orthogonalLoop=1;jettySize=auto;html=1;fillColor=#60a917;strokeColor=#000000;strokeWidth=1;entryX=0.5;entryY=1;entryDx=0;entryDy=0;entryPerimeter=0;" edge="1" parent="1" source="mZrZ3VLlIDcRX8v9q6k0-9" target="mZrZ3VLlIDcRX8v9q6k0-31">
          <mxGeometry relative="1" as="geometry">
            <mxPoint x="220" y="-186" as="targetPoint" />
          </mxGeometry>
        </mxCell>
        <mxCell id="mZrZ3VLlIDcRX8v9q6k0-9" value="" style="sketch=0;outlineConnect=0;fontColor=#232F3E;gradientColor=none;fillColor=#B0084D;strokeColor=none;dashed=0;verticalLabelPosition=bottom;verticalAlign=top;align=center;html=1;fontSize=12;fontStyle=0;aspect=fixed;pointerEvents=1;shape=mxgraph.aws4.systems_manager_session_manager;" vertex="1" parent="1">
          <mxGeometry x="181" y="40" width="78" height="78" as="geometry" />
        </mxCell>
        <mxCell id="mZrZ3VLlIDcRX8v9q6k0-12" style="edgeStyle=orthogonalEdgeStyle;rounded=0;orthogonalLoop=1;jettySize=auto;html=1;fillColor=#60a917;strokeColor=#000000;strokeWidth=1;" edge="1" parent="1" source="mZrZ3VLlIDcRX8v9q6k0-11" target="mZrZ3VLlIDcRX8v9q6k0-9">
          <mxGeometry relative="1" as="geometry" />
        </mxCell>
        <mxCell id="mZrZ3VLlIDcRX8v9q6k0-11" value="" style="html=1;verticalLabelPosition=bottom;align=center;labelBackgroundColor=#ffffff;verticalAlign=top;strokeWidth=2;strokeColor=#0080F0;shadow=0;dashed=0;shape=mxgraph.ios7.icons.user;" vertex="1" parent="1">
          <mxGeometry x="205" y="200" width="30" height="30" as="geometry" />
        </mxCell>
        <mxCell id="mZrZ3VLlIDcRX8v9q6k0-22" style="edgeStyle=orthogonalEdgeStyle;rounded=0;orthogonalLoop=1;jettySize=auto;html=1;entryX=0.5;entryY=0.02;entryDx=0;entryDy=0;entryPerimeter=0;strokeColor=#000000;" edge="1" parent="1" source="mZrZ3VLlIDcRX8v9q6k0-21" target="mZrZ3VLlIDcRX8v9q6k0-38">
          <mxGeometry relative="1" as="geometry">
            <mxPoint x="354.75" y="-319.34000000000015" as="targetPoint" />
          </mxGeometry>
        </mxCell>
        <mxCell id="mZrZ3VLlIDcRX8v9q6k0-25" style="edgeStyle=orthogonalEdgeStyle;rounded=0;orthogonalLoop=1;jettySize=auto;html=1;strokeColor=#000000;" edge="1" parent="1" source="mZrZ3VLlIDcRX8v9q6k0-21" target="mZrZ3VLlIDcRX8v9q6k0-24">
          <mxGeometry relative="1" as="geometry" />
        </mxCell>
        <mxCell id="mZrZ3VLlIDcRX8v9q6k0-21" value="" style="outlineConnect=0;dashed=0;verticalLabelPosition=bottom;verticalAlign=top;align=center;html=1;shape=mxgraph.aws3.ec2_compute_container;fillColor=#F58534;gradientColor=none;" vertex="1" parent="1">
          <mxGeometry x="325" y="-413" width="60" height="34.5" as="geometry" />
        </mxCell>
        <mxCell id="mZrZ3VLlIDcRX8v9q6k0-29" style="edgeStyle=orthogonalEdgeStyle;rounded=0;orthogonalLoop=1;jettySize=auto;html=1;" edge="1" parent="1" source="mZrZ3VLlIDcRX8v9q6k0-24" target="mZrZ3VLlIDcRX8v9q6k0-28">
          <mxGeometry relative="1" as="geometry" />
        </mxCell>
        <mxCell id="mZrZ3VLlIDcRX8v9q6k0-24" value="" style="sketch=0;outlineConnect=0;fontColor=#232F3E;gradientColor=none;fillColor=#4D27AA;strokeColor=none;dashed=0;verticalLabelPosition=bottom;verticalAlign=top;align=center;html=1;fontSize=12;fontStyle=0;aspect=fixed;pointerEvents=1;shape=mxgraph.aws4.endpoints;" vertex="1" parent="1">
          <mxGeometry x="50" y="-425.75" width="60" height="60" as="geometry" />
        </mxCell>
        <mxCell id="mZrZ3VLlIDcRX8v9q6k0-27" style="edgeStyle=orthogonalEdgeStyle;rounded=0;orthogonalLoop=1;jettySize=auto;html=1;exitX=0.5;exitY=0;exitDx=0;exitDy=0;exitPerimeter=0;" edge="1" parent="1" source="mZrZ3VLlIDcRX8v9q6k0-31" target="mZrZ3VLlIDcRX8v9q6k0-24">
          <mxGeometry relative="1" as="geometry">
            <mxPoint x="120" y="-400" as="targetPoint" />
            <mxPoint x="220" y="-234.8699999999999" as="sourcePoint" />
            <Array as="points">
              <mxPoint x="220" y="-396" />
            </Array>
          </mxGeometry>
        </mxCell>
        <mxCell id="mZrZ3VLlIDcRX8v9q6k0-28" value="" style="sketch=0;points=[[0,0,0],[0.25,0,0],[0.5,0,0],[0.75,0,0],[1,0,0],[0,1,0],[0.25,1,0],[0.5,1,0],[0.75,1,0],[1,1,0],[0,0.25,0],[0,0.5,0],[0,0.75,0],[1,0.25,0],[1,0.5,0],[1,0.75,0]];points=[[0,0,0],[0.25,0,0],[0.5,0,0],[0.75,0,0],[1,0,0],[0,1,0],[0.25,1,0],[0.5,1,0],[0.75,1,0],[1,1,0],[0,0.25,0],[0,0.5,0],[0,0.75,0],[1,0.25,0],[1,0.5,0],[1,0.75,0]];outlineConnect=0;fontColor=#232F3E;gradientColor=#F34482;gradientDirection=north;fillColor=#BC1356;strokeColor=#ffffff;dashed=0;verticalLabelPosition=bottom;verticalAlign=top;align=center;html=1;fontSize=12;fontStyle=0;aspect=fixed;shape=mxgraph.aws4.resourceIcon;resIcon=mxgraph.aws4.cloudwatch_2;" vertex="1" parent="1">
          <mxGeometry x="-130" y="-434" width="78" height="78" as="geometry" />
        </mxCell>
        <mxCell id="mZrZ3VLlIDcRX8v9q6k0-32" style="edgeStyle=orthogonalEdgeStyle;rounded=0;orthogonalLoop=1;jettySize=auto;html=1;" edge="1" parent="1" source="mZrZ3VLlIDcRX8v9q6k0-30" target="mZrZ3VLlIDcRX8v9q6k0-24">
          <mxGeometry relative="1" as="geometry">
            <Array as="points">
              <mxPoint x="-91" y="-320" />
              <mxPoint y="-320" />
              <mxPoint y="-396" />
            </Array>
          </mxGeometry>
        </mxCell>
        <mxCell id="mZrZ3VLlIDcRX8v9q6k0-30" value="" style="outlineConnect=0;dashed=0;verticalLabelPosition=bottom;verticalAlign=top;align=center;html=1;shape=mxgraph.aws3.ecs;fillColor=#F58534;gradientColor=none;" vertex="1" parent="1">
          <mxGeometry x="-127" y="-290" width="72" height="67.5" as="geometry" />
        </mxCell>
        <mxCell id="mZrZ3VLlIDcRX8v9q6k0-34" style="edgeStyle=orthogonalEdgeStyle;rounded=0;orthogonalLoop=1;jettySize=auto;html=1;" edge="1" parent="1" source="mZrZ3VLlIDcRX8v9q6k0-33" target="mZrZ3VLlIDcRX8v9q6k0-24">
          <mxGeometry relative="1" as="geometry">
            <Array as="points">
              <mxPoint x="-94" y="-200" />
              <mxPoint y="-200" />
              <mxPoint y="-396" />
            </Array>
          </mxGeometry>
        </mxCell>
        <mxCell id="mZrZ3VLlIDcRX8v9q6k0-33" value="" style="sketch=0;points=[[0,0,0],[0.25,0,0],[0.5,0,0],[0.75,0,0],[1,0,0],[0,1,0],[0.25,1,0],[0.5,1,0],[0.75,1,0],[1,1,0],[0,0.25,0],[0,0.5,0],[0,0.75,0],[1,0.25,0],[1,0.5,0],[1,0.75,0]];outlineConnect=0;fontColor=#232F3E;gradientColor=#F78E04;gradientDirection=north;fillColor=#D05C17;strokeColor=#ffffff;dashed=0;verticalLabelPosition=bottom;verticalAlign=top;align=center;html=1;fontSize=12;fontStyle=0;aspect=fixed;shape=mxgraph.aws4.resourceIcon;resIcon=mxgraph.aws4.ecr;" vertex="1" parent="1">
          <mxGeometry x="-133" y="-170" width="78" height="78" as="geometry" />
        </mxCell>
        <mxCell id="mZrZ3VLlIDcRX8v9q6k0-36" style="edgeStyle=orthogonalEdgeStyle;rounded=0;orthogonalLoop=1;jettySize=auto;html=1;entryX=0.5;entryY=0;entryDx=0;entryDy=0;entryPerimeter=0;" edge="1" parent="1" source="mZrZ3VLlIDcRX8v9q6k0-35" target="mZrZ3VLlIDcRX8v9q6k0-21">
          <mxGeometry relative="1" as="geometry" />
        </mxCell>
        <mxCell id="mZrZ3VLlIDcRX8v9q6k0-37" style="edgeStyle=orthogonalEdgeStyle;rounded=0;orthogonalLoop=1;jettySize=auto;html=1;" edge="1" parent="1" source="mZrZ3VLlIDcRX8v9q6k0-35" target="mZrZ3VLlIDcRX8v9q6k0-20">
          <mxGeometry relative="1" as="geometry" />
        </mxCell>
        <mxCell id="mZrZ3VLlIDcRX8v9q6k0-35" value="" style="outlineConnect=0;dashed=0;verticalLabelPosition=bottom;verticalAlign=top;align=center;html=1;shape=mxgraph.aws3.application_load_balancer;fillColor=#F58534;gradientColor=none;" vertex="1" parent="1">
          <mxGeometry x="600" y="-800" width="50" height="50" as="geometry" />
        </mxCell>
        <mxCell id="mZrZ3VLlIDcRX8v9q6k0-23" value="" style="edgeStyle=orthogonalEdgeStyle;rounded=0;orthogonalLoop=1;jettySize=auto;html=1;strokeColor=#000000;entryX=1;entryY=0.5;entryDx=0;entryDy=0;entryPerimeter=0;" edge="1" parent="1" source="mZrZ3VLlIDcRX8v9q6k0-20" target="mZrZ3VLlIDcRX8v9q6k0-38">
          <mxGeometry relative="1" as="geometry">
            <mxPoint x="860" y="-320" as="targetPoint" />
            <Array as="points">
              <mxPoint x="860" y="-287" />
            </Array>
          </mxGeometry>
        </mxCell>
        <mxCell id="mZrZ3VLlIDcRX8v9q6k0-40" style="edgeStyle=orthogonalEdgeStyle;rounded=0;orthogonalLoop=1;jettySize=auto;html=1;" edge="1" parent="1" source="mZrZ3VLlIDcRX8v9q6k0-39" target="mZrZ3VLlIDcRX8v9q6k0-35">
          <mxGeometry relative="1" as="geometry" />
        </mxCell>
        <mxCell id="mZrZ3VLlIDcRX8v9q6k0-39" value="" style="sketch=0;outlineConnect=0;fontColor=#232F3E;gradientColor=none;fillColor=#D45B07;strokeColor=none;dashed=0;verticalLabelPosition=bottom;verticalAlign=top;align=center;html=1;fontSize=12;fontStyle=0;aspect=fixed;pointerEvents=1;shape=mxgraph.aws4.elastic_ip_address;" vertex="1" parent="1">
          <mxGeometry x="602" y="-860" width="48" height="20" as="geometry" />
        </mxCell>
        <mxCell id="mZrZ3VLlIDcRX8v9q6k0-42" style="edgeStyle=orthogonalEdgeStyle;rounded=0;orthogonalLoop=1;jettySize=auto;html=1;" edge="1" parent="1" source="mZrZ3VLlIDcRX8v9q6k0-41" target="mZrZ3VLlIDcRX8v9q6k0-39">
          <mxGeometry relative="1" as="geometry" />
        </mxCell>
        <mxCell id="mZrZ3VLlIDcRX8v9q6k0-41" value="" style="html=1;verticalLabelPosition=bottom;align=center;labelBackgroundColor=#ffffff;verticalAlign=top;strokeWidth=2;strokeColor=#0080F0;shadow=0;dashed=0;shape=mxgraph.ios7.icons.globe;" vertex="1" parent="1">
          <mxGeometry x="610" y="-980" width="30" height="30" as="geometry" />
        </mxCell>
        <mxCell id="mZrZ3VLlIDcRX8v9q6k0-46" style="edgeStyle=orthogonalEdgeStyle;rounded=0;orthogonalLoop=1;jettySize=auto;html=1;" edge="1" parent="1" source="mZrZ3VLlIDcRX8v9q6k0-43" target="mZrZ3VLlIDcRX8v9q6k0-45">
          <mxGeometry relative="1" as="geometry" />
        </mxCell>
        <mxCell id="mZrZ3VLlIDcRX8v9q6k0-43" value="" style="sketch=0;outlineConnect=0;fontColor=#232F3E;gradientColor=none;fillColor=#B0084D;strokeColor=none;dashed=0;verticalLabelPosition=bottom;verticalAlign=top;align=center;html=1;fontSize=12;fontStyle=0;aspect=fixed;pointerEvents=1;shape=mxgraph.aws4.parameter_store;" vertex="1" parent="1">
          <mxGeometry x="330" y="49" width="57.69" height="60" as="geometry" />
        </mxCell>
        <mxCell id="mZrZ3VLlIDcRX8v9q6k0-47" style="edgeStyle=orthogonalEdgeStyle;rounded=0;orthogonalLoop=1;jettySize=auto;html=1;entryX=0.5;entryY=1;entryDx=0;entryDy=0;entryPerimeter=0;" edge="1" parent="1" source="mZrZ3VLlIDcRX8v9q6k0-45" target="mZrZ3VLlIDcRX8v9q6k0-31">
          <mxGeometry relative="1" as="geometry">
            <Array as="points">
              <mxPoint x="360" y="-150" />
              <mxPoint x="220" y="-150" />
            </Array>
          </mxGeometry>
        </mxCell>
        <mxCell id="mZrZ3VLlIDcRX8v9q6k0-45" value="" style="sketch=0;outlineConnect=0;fontColor=#232F3E;gradientColor=none;fillColor=#4D27AA;strokeColor=none;dashed=0;verticalLabelPosition=bottom;verticalAlign=top;align=center;html=1;fontSize=12;fontStyle=0;aspect=fixed;pointerEvents=1;shape=mxgraph.aws4.endpoints;" vertex="1" parent="1">
          <mxGeometry x="330" y="-140" width="60" height="60" as="geometry" />
        </mxCell>
        <mxCell id="mZrZ3VLlIDcRX8v9q6k0-50" style="edgeStyle=orthogonalEdgeStyle;rounded=0;orthogonalLoop=1;jettySize=auto;html=1;" edge="1" parent="1" source="mZrZ3VLlIDcRX8v9q6k0-49" target="mZrZ3VLlIDcRX8v9q6k0-43">
          <mxGeometry relative="1" as="geometry" />
        </mxCell>
        <mxCell id="mZrZ3VLlIDcRX8v9q6k0-49" value="" style="outlineConnect=0;dashed=0;verticalLabelPosition=bottom;verticalAlign=top;align=center;html=1;shape=mxgraph.aws3.lambda_function;fillColor=#F58534;gradientColor=none;" vertex="1" parent="1">
          <mxGeometry x="500" y="43" width="69" height="72" as="geometry" />
        </mxCell>
      </root>
    </mxGraphModel>
  </diagram>
</mxfile>
